<?xml version="1.0" encoding="UTF-8" standalone="no"?>
<svg
   xmlns:dc="http://purl.org/dc/elements/1.1/"
   xmlns:cc="http://creativecommons.org/ns#"
   xmlns:rdf="http://www.w3.org/1999/02/22-rdf-syntax-ns#"
   xmlns:svg="http://www.w3.org/2000/svg"
   xmlns="http://www.w3.org/2000/svg"
   xmlns:sodipodi="http://sodipodi.sourceforge.net/DTD/sodipodi-0.dtd"
   xmlns:inkscape="http://www.inkscape.org/namespaces/inkscape"
   width="210mm"
   height="297mm"
   viewBox="0 0 210 297"
   version="1.1"
   id="svg8"
   inkscape:version="1.0.1 (3bc2e813f5, 2020-09-07)"
   sodipodi:docname="eyelid_right.svg">
  <defs
     id="defs2">
    <inkscape:path-effect
       effect="powerstroke"
       id="path-effect887"
       is_visible="true"
       lpeversion="1"
       offset_points="0,0.1322915"
       sort_points="true"
       interpolator_type="CubicBezierJohan"
       interpolator_beta="0.2"
       start_linecap_type="zerowidth"
       linejoin_type="extrp_arc"
       miter_limit="4"
       scale_width="1"
       end_linecap_type="zerowidth" />
    <inkscape:path-effect
       effect="powerstroke"
       id="path-effect883"
       is_visible="true"
       lpeversion="1"
       offset_points="0,0.1322915"
       sort_points="true"
       interpolator_type="CubicBezierJohan"
       interpolator_beta="0.2"
       start_linecap_type="zerowidth"
       linejoin_type="extrp_arc"
       miter_limit="4"
       scale_width="1"
       end_linecap_type="zerowidth" />
  </defs>
  <sodipodi:namedview
     id="base"
     pagecolor="#ffffff"
     bordercolor="#666666"
     borderopacity="1.0"
     inkscape:pageopacity="0.0"
     inkscape:pageshadow="2"
     inkscape:zoom="1.0935553"
     inkscape:cx="230.67948"
     inkscape:cy="102.45164"
     inkscape:document-units="mm"
     inkscape:current-layer="layer1"
     inkscape:document-rotation="0"
     showgrid="false"
     inkscape:window-width="1920"
     inkscape:window-height="1052"
     inkscape:window-x="0"
     inkscape:window-y="0"
     inkscape:window-maximized="1" />
  <metadata
     id="metadata5">
    <rdf:RDF>
      <cc:Work
         rdf:about="">
        <dc:format>image/svg+xml</dc:format>
        <dc:type
           rdf:resource="http://purl.org/dc/dcmitype/StillImage" />
        <dc:title />
      </cc:Work>
    </rdf:RDF>
  </metadata>
  <g
     inkscape:label="Layer 1"
     inkscape:groupmode="layer"
     id="layer1">
    <g
       id="g852"
       transform="matrix(-0.92048294,0,0,0.95516571,199.01252,16.024647)"
       style="stroke-width:1;stroke-miterlimit:4;stroke-dasharray:none">
      <path
         id="path848"
         style="color:#000000;overflow:visible;fill:none;fill-opacity:1;fill-rule:evenodd;stroke:#000000;stroke-width:1;stroke-miterlimit:4;stroke-dasharray:none;stroke-opacity:1"
         d="m 129.20401,1.0293635 c -13.5034,0.05274 -13.70392,1.1855307 -13.70382,19.5567255 -3e-5,0.03157 -3e-5,0.06316 0,0.09476 v 11.688195 c 6.42532,-5.046857 18.98821,-4.682921 24.52661,-4.682921 5.54168,1.53e-4 15.90334,2.855596 22.32792,7.902219 v -8.636309 c 0,-18.4085392 -19.54941,-25.922727 -33.08031,-25.9226695 -0.0245,-6.96e-5 -0.0495,0 -0.0704,0 z"
         sodipodi:nodetypes="ccccccscc" />
      <path
         id="path850"
         style="color:#000000;overflow:visible;fill:#dfdfdf;fill-opacity:1;fill-rule:evenodd;stroke:none;stroke-width:0.997824;stroke-miterlimit:4;stroke-dasharray:none;stroke-opacity:1"
         d="m 129.19969,-1.0727113 c -14.33024,0.053467 -18.37477,2.3624456 -18.37467,20.9870713 -3e-5,0.03201 -3e-5,0.06403 0,0.09607 l 4.7625,12.108288 c 6.81875,-5.116483 18.56175,-4.760024 24.43927,-4.760024 5.881,1.55e-4 15.95889,3.417092 22.77687,8.533333 l 2.05431,-11.827721 C 168.06126,5.6213352 143.63382,-1.0727695 129.2744,-1.0727113 c -0.026,-7.05e-5 -0.0525,0 -0.0746,0 z"
         sodipodi:nodetypes="ccccccsccc" />
    </g>
  </g>
</svg>
