<?xml version="1.0" encoding="UTF-8" standalone="no"?>
<svg
   xmlns:dc="http://purl.org/dc/elements/1.1/"
   xmlns:cc="http://creativecommons.org/ns#"
   xmlns:rdf="http://www.w3.org/1999/02/22-rdf-syntax-ns#"
   xmlns:svg="http://www.w3.org/2000/svg"
   xmlns="http://www.w3.org/2000/svg"
   xmlns:sodipodi="http://sodipodi.sourceforge.net/DTD/sodipodi-0.dtd"
   xmlns:inkscape="http://www.inkscape.org/namespaces/inkscape"
   width="256mm"
   height="384mm"
   viewBox="0 0 256 384"
   version="1.1"
   id="svg8"
   inkscape:version="1.0.1 (3bc2e813f5, 2020-09-07)"
   sodipodi:docname="jaw_upper.svg">
  <defs
     id="defs2">
    <inkscape:path-effect
       effect="powerstroke"
       id="path-effect887"
       is_visible="true"
       lpeversion="1"
       offset_points="0,0.1322915"
       sort_points="true"
       interpolator_type="CubicBezierJohan"
       interpolator_beta="0.2"
       start_linecap_type="zerowidth"
       linejoin_type="extrp_arc"
       miter_limit="4"
       scale_width="1"
       end_linecap_type="zerowidth" />
    <inkscape:path-effect
       effect="powerstroke"
       id="path-effect883"
       is_visible="true"
       lpeversion="1"
       offset_points="0,0.1322915"
       sort_points="true"
       interpolator_type="CubicBezierJohan"
       interpolator_beta="0.2"
       start_linecap_type="zerowidth"
       linejoin_type="extrp_arc"
       miter_limit="4"
       scale_width="1"
       end_linecap_type="zerowidth" />
  </defs>
  <sodipodi:namedview
     id="base"
     pagecolor="#ffffff"
     bordercolor="#666666"
     borderopacity="1.0"
     inkscape:pageopacity="0.0"
     inkscape:pageshadow="2"
     inkscape:zoom="0.7"
     inkscape:cx="262.45116"
     inkscape:cy="548.48058"
     inkscape:document-units="mm"
     inkscape:current-layer="layer1"
     inkscape:document-rotation="0"
     showgrid="false"
     inkscape:window-width="1920"
     inkscape:window-height="1052"
     inkscape:window-x="0"
     inkscape:window-y="0"
     inkscape:window-maximized="1" />
  <metadata
     id="metadata5">
    <rdf:RDF>
      <cc:Work
         rdf:about="">
        <dc:format>image/svg+xml</dc:format>
        <dc:type
           rdf:resource="http://purl.org/dc/dcmitype/StillImage" />
        <dc:title />
      </cc:Work>
    </rdf:RDF>
  </metadata>
  <g
     inkscape:label="Layer 1"
     inkscape:groupmode="layer"
     id="layer1">
    <g
       id="g878"
       transform="matrix(1.0313686,0,0,0.92846096,20.737616,73.85609)"
       style="stroke-width:1.00005;stroke-miterlimit:4;stroke-dasharray:none">
      <path
         id="path836"
         style="color:#000000;overflow:visible;fill:none;fill-rule:evenodd;stroke:#000000;stroke-width:3.72283;stroke-miterlimit:4;stroke-dasharray:none"
         d="m 330.94531,345.88672 c -20.54745,13.70833 -25.59203,20.27748 -59.38086,26.3418 0.22505,27.22071 12.51465,49.24609 57.25391,49.24609 44.87865,0 81.25976,-22.16216 81.25976,-49.5 0,-26.90044 -35.24677,-25.99551 -79.13281,-26.08789 z"
         transform="matrix(0.26458333,0,0,0.27273073,-1,-5.4489376)"
         sodipodi:nodetypes="ccssc" />
      <path
         id="ellipse850"
         style="color:#000000;overflow:visible;fill:none;fill-rule:evenodd;stroke:#000000;stroke-width:3.72283;stroke-miterlimit:4;stroke-dasharray:none"
         d="m 462.75391,345.88672 c -43.88511,0.0925 -79.13282,-0.81215 -79.13282,26.08789 0,27.33784 36.38308,49.5 81.26172,49.5 6.6796,0 12.81421,-0.49096 18.41841,-1.41687 31.9321,-5.27575 38.64407,-24.67258 38.8355,-47.82922 -33.78954,-6.06417 -38.83484,-12.63333 -59.38281,-26.3418 z"
         transform="matrix(0.26458333,0,0,0.27273073,-1,-5.4489376)"
         sodipodi:nodetypes="cssscc" />
      <path
         id="ellipse838"
         style="color:#000000;overflow:visible;fill:#dfdfdf;fill-opacity:1;fill-rule:evenodd;stroke:none;stroke-width:3.72283;stroke-miterlimit:4;stroke-dasharray:none"
         d="m 338.40039,336.47852 c -21.55312,17.05446 -47.62276,30.0455 -88.13281,36.65625 4.03102,26.08635 32.39325,46.50585 76.66211,46.50585 46.96595,10e-6 85.03906,-22.98176 85.03906,-51.33203 0,-25.99566 -32.04212,-31.15078 -73.56836,-31.83007 z"
         transform="matrix(0.26458333,0,0,0.27273073,-1,-5.4489376)"
         sodipodi:nodetypes="ccssc" />
      <path
         id="ellipse852"
         style="color:#000000;overflow:visible;fill:#dfdfdf;fill-opacity:1;fill-rule:evenodd;stroke:none;stroke-width:3.72283;stroke-miterlimit:4;stroke-dasharray:none"
         d="m 455.29883,336.47852 c -41.52594,0.67933 -73.56641,5.83455 -73.56641,31.83007 0,28.35027 38.07311,51.33204 85.03906,51.33203 44.26898,0 72.63124,-20.41941 76.66211,-46.50585 -40.51077,-6.61057 -66.58116,-19.60163 -88.13476,-36.65625 z"
         transform="matrix(0.26458333,0,0,0.27273073,-1,-5.4489376)"
         sodipodi:nodetypes="csscc" />
    </g>
  </g>
</svg>
