<?xml version="1.0" encoding="UTF-8" standalone="no"?>
<svg
   xmlns:dc="http://purl.org/dc/elements/1.1/"
   xmlns:cc="http://creativecommons.org/ns#"
   xmlns:rdf="http://www.w3.org/1999/02/22-rdf-syntax-ns#"
   xmlns:svg="http://www.w3.org/2000/svg"
   xmlns="http://www.w3.org/2000/svg"
   xmlns:sodipodi="http://sodipodi.sourceforge.net/DTD/sodipodi-0.dtd"
   xmlns:inkscape="http://www.inkscape.org/namespaces/inkscape"
   width="256mm"
   height="384mm"
   viewBox="0 0 256 384"
   version="1.1"
   id="svg8"
   inkscape:version="1.0.1 (3bc2e813f5, 2020-09-07)"
   sodipodi:docname="tail.svg">
  <defs
     id="defs2">
    <inkscape:path-effect
       effect="powerstroke"
       id="path-effect887"
       is_visible="true"
       lpeversion="1"
       offset_points="0,0.1322915"
       sort_points="true"
       interpolator_type="CubicBezierJohan"
       interpolator_beta="0.2"
       start_linecap_type="zerowidth"
       linejoin_type="extrp_arc"
       miter_limit="4"
       scale_width="1"
       end_linecap_type="zerowidth" />
    <inkscape:path-effect
       effect="powerstroke"
       id="path-effect883"
       is_visible="true"
       lpeversion="1"
       offset_points="0,0.1322915"
       sort_points="true"
       interpolator_type="CubicBezierJohan"
       interpolator_beta="0.2"
       start_linecap_type="zerowidth"
       linejoin_type="extrp_arc"
       miter_limit="4"
       scale_width="1"
       end_linecap_type="zerowidth" />
  </defs>
  <sodipodi:namedview
     id="base"
     pagecolor="#ffffff"
     bordercolor="#666666"
     borderopacity="1.0"
     inkscape:pageopacity="0.0"
     inkscape:pageshadow="2"
     inkscape:zoom="0.49497475"
     inkscape:cx="244.47461"
     inkscape:cy="332.23964"
     inkscape:document-units="mm"
     inkscape:current-layer="layer1"
     inkscape:document-rotation="0"
     showgrid="false"
     inkscape:window-width="1920"
     inkscape:window-height="1052"
     inkscape:window-x="0"
     inkscape:window-y="0"
     inkscape:window-maximized="1"
     fit-margin-left="-256"
     fit-margin-right="256"
     lock-margins="false"
     viewbox-width="210"
     fit-margin-top="0"
     viewbox-x="-23"
     viewbox-y="-63" />
  <metadata
     id="metadata5">
    <rdf:RDF>
      <cc:Work
         rdf:about="">
        <dc:format>image/svg+xml</dc:format>
        <dc:type
           rdf:resource="http://purl.org/dc/dcmitype/StillImage" />
        <dc:title />
      </cc:Work>
    </rdf:RDF>
  </metadata>
  <g
     inkscape:label="Layer 1"
     inkscape:groupmode="layer"
     id="layer1">
    <path
       style="color:#000000;font-style:normal;font-variant:normal;font-weight:normal;font-stretch:normal;font-size:medium;line-height:normal;font-family:sans-serif;font-variant-ligatures:normal;font-variant-position:normal;font-variant-caps:normal;font-variant-numeric:normal;font-variant-alternates:normal;font-variant-east-asian:normal;font-feature-settings:normal;font-variation-settings:normal;text-indent:0;text-align:start;text-decoration:none;text-decoration-line:none;text-decoration-style:solid;text-decoration-color:#000000;letter-spacing:normal;word-spacing:normal;text-transform:none;writing-mode:lr-tb;direction:ltr;text-orientation:mixed;dominant-baseline:auto;baseline-shift:baseline;text-anchor:start;white-space:normal;shape-padding:0;shape-margin:0;inline-size:0;clip-rule:nonzero;display:inline;overflow:visible;visibility:visible;opacity:1;isolation:auto;mix-blend-mode:normal;color-interpolation:sRGB;color-interpolation-filters:linearRGB;solid-color:#000000;solid-opacity:1;vector-effect:none;fill:#dedede;fill-opacity:1;fill-rule:evenodd;stroke:#000000;stroke-width:1;stroke-linecap:round;stroke-linejoin:miter;stroke-miterlimit:4;stroke-dasharray:none;stroke-dashoffset:0;stroke-opacity:1;paint-order:normal;color-rendering:auto;image-rendering:auto;shape-rendering:auto;text-rendering:auto;enable-background:accumulate;stop-color:#000000;stop-opacity:1"
       d="M 129.65901,0.50730957 C 119.14204,0.75611541 109.62593,4.9018528 100.06436,15.39965 90.678507,25.704543 86.761155,37.940386 89.215876,48.885414 c 1.227359,5.472514 4.341379,10.754259 9.335555,14.060931 4.994189,3.306677 10.402869,3.167915 16.581049,1.868449 5.63515,-1.185277 6.81656,-1.644161 11.52142,-5.771316 2.35244,-2.063578 4.73685,-4.503596 6.16339,-8.633226 1.42654,-4.129631 1.98422,-6.431033 -1.37227,-10.116161 -3.67659,-4.036287 -8.32649,-3.781865 -12.34008,-0.08447 -2.51428,2.316129 -3.13137,4.716375 -2.49968,8.085954 -1.87502,1.329575 -4.55228,1.260678 -4.98109,1.350877 -2.11043,0.44389 -3.60017,-0.993852 -3.8203,-1.139596 -0.22013,-0.145751 -1.16239,-2.588074 -1.47514,-3.982612 -0.62552,-2.789076 0.32785,-10.392831 6.1578,-16.793647 7.75486,-8.514198 14.95798,-8.402447 17.63638,-8.465811 2.67839,-0.06336 5.90275,1.45373 10.82345,6.856253 4.33771,4.762453 6.02535,9.554971 6.53296,13.061579 0.50763,3.50661 -0.11099,7.362333 -2.49269,12.558829 -4.76338,10.392992 -17.97976,23.697795 -34.73733,42.096224 -3.67619,4.036725 -0.2335,11.364389 3.78075,15.061139 4.01384,3.69563 12.35903,3.42006 16.03488,-0.61553 16.88581,-18.539237 26.94815,-33.123186 33.87907,-48.24542 3.46547,-7.561116 4.2131,-15.605805 3.03989,-23.710402 C 165.81066,28.222863 161.71258,20.63384 155.48096,13.792027 148.7335,6.3839028 140.17601,0.25850376 129.65901,0.50730957 Z"
       id="path849"
       sodipodi:nodetypes="ssssssscccsssssssscccssss" />
  </g>
</svg>
