<?xml version="1.0" encoding="UTF-8" standalone="no"?>
<svg
   xmlns:dc="http://purl.org/dc/elements/1.1/"
   xmlns:cc="http://creativecommons.org/ns#"
   xmlns:rdf="http://www.w3.org/1999/02/22-rdf-syntax-ns#"
   xmlns:svg="http://www.w3.org/2000/svg"
   xmlns="http://www.w3.org/2000/svg"
   xmlns:sodipodi="http://sodipodi.sourceforge.net/DTD/sodipodi-0.dtd"
   xmlns:inkscape="http://www.inkscape.org/namespaces/inkscape"
   width="256mm"
   height="384mm"
   viewBox="0 0 256 384"
   version="1.1"
   id="svg8"
   inkscape:version="1.0.1 (3bc2e813f5, 2020-09-07)"
   sodipodi:docname="throat.svg">
  <defs
     id="defs2">
    <inkscape:path-effect
       effect="powerstroke"
       id="path-effect887"
       is_visible="true"
       lpeversion="1"
       offset_points="0,0.1322915"
       sort_points="true"
       interpolator_type="CubicBezierJohan"
       interpolator_beta="0.2"
       start_linecap_type="zerowidth"
       linejoin_type="extrp_arc"
       miter_limit="4"
       scale_width="1"
       end_linecap_type="zerowidth" />
    <inkscape:path-effect
       effect="powerstroke"
       id="path-effect883"
       is_visible="true"
       lpeversion="1"
       offset_points="0,0.1322915"
       sort_points="true"
       interpolator_type="CubicBezierJohan"
       interpolator_beta="0.2"
       start_linecap_type="zerowidth"
       linejoin_type="extrp_arc"
       miter_limit="4"
       scale_width="1"
       end_linecap_type="zerowidth" />
  </defs>
  <sodipodi:namedview
     id="base"
     pagecolor="#ffffff"
     bordercolor="#666666"
     borderopacity="1.0"
     inkscape:pageopacity="0.0"
     inkscape:pageshadow="2"
     inkscape:zoom="0.9899495"
     inkscape:cx="476.91191"
     inkscape:cy="514.28968"
     inkscape:document-units="mm"
     inkscape:current-layer="layer1"
     inkscape:document-rotation="0"
     showgrid="false"
     inkscape:window-width="1920"
     inkscape:window-height="1052"
     inkscape:window-x="0"
     inkscape:window-y="0"
     inkscape:window-maximized="1" />
  <metadata
     id="metadata5">
    <rdf:RDF>
      <cc:Work
         rdf:about="">
        <dc:format>image/svg+xml</dc:format>
        <dc:type
           rdf:resource="http://purl.org/dc/dcmitype/StillImage" />
        <dc:title />
      </cc:Work>
    </rdf:RDF>
  </metadata>
  <g
     inkscape:label="Layer 1"
     inkscape:groupmode="layer"
     id="layer1">
    <g
       id="g845">
      <path
         id="path836"
         style="color:#000000;overflow:visible;fill:#ffcfcf;fill-opacity:1;fill-rule:evenodd;stroke:none;stroke-width:1.10382"
         d="m 127.98986,150.52459 c -26.2269,0.004 -47.484954,14.09476 -47.484748,31.47552 2.49e-4,17.38312 21.264218,31.47487 47.494678,31.47498 26.23065,8e-5 47.49494,-14.09172 47.49519,-31.47498 2.1e-4,-17.38347 -21.26422,-31.4756 -47.49519,-31.47552 z m 0.01,15.4889 c 17.85913,-4e-5 29.12846,1.53635 29.12868,13.7046 2.3e-4,12.16846 -11.26924,19.81226 -29.12868,19.81222 -17.85923,-1.6e-4 -29.128379,-7.6439 -29.128149,-19.81222 2.11e-4,-12.16811 11.269229,-13.70445 29.128149,-13.7046 z"
         sodipodi:nodetypes="scscsscscsc" />
      <ellipse
         style="color:#000000;overflow:visible;fill:none;fill-opacity:1;fill-rule:evenodd;stroke:#000000;stroke-width:1.02967;stroke-miterlimit:4;stroke-dasharray:none;stroke-opacity:1"
         id="ellipse856"
         cx="128"
         cy="182.00009"
         rx="47.494961"
         ry="31.475271" />
      <path
         id="rect842"
         style="color:#000000;overflow:visible;fill:#ffcfcf;fill-opacity:1;fill-rule:evenodd;stroke:none;stroke-width:0.718817;stroke-miterlimit:4;stroke-dasharray:none;stroke-opacity:1"
         d="m 126.15974,165 c -0.34042,1.35548 0.58568,2.94169 0.58923,4.07898 -0.87064,0.63243 -1.74895,1.97937 -1.74897,3.03348 2e-5,1.84952 1.09055,2.88753 3,2.88754 1.90946,-1e-5 2.99999,-1.03802 3,-2.88754 -4e-5,-1.05402 -0.87827,-2.40103 -1.7488,-3.03348 v 0 c 0.0984,-1.56216 0.83725,-2.69161 0.58923,-4.07898 H 128 Z"
         sodipodi:nodetypes="cccccccccc" />
    </g>
  </g>
</svg>
